<?xml version="1.0" encoding="utf-8"?>
<!-- Generator: Adobe Illustrator 28.1.0, SVG Export Plug-In . SVG Version: 6.00 Build 0)  -->
<svg version="1.1" id="Layer_1" xmlns="http://www.w3.org/2000/svg" xmlns:xlink="http://www.w3.org/1999/xlink" x="0px" y="0px"
	 viewBox="0 0 128 128" style="enable-background:new 0 0 128 128;" xml:space="preserve">
<style type="text/css">
	.st0{fill:#ED3644;}
	.st1{fill:#FFFFFF;}
</style>
<path class="st0" d="M119.6,128H8.4c-4.6,0-8.4-3.8-8.4-8.4V8.4C0,3.8,3.8,0,8.4,0h111.2c4.6,0,8.4,3.8,8.4,8.4v111.2
	C128,124.2,124.2,128,119.6,128z"/>
<path class="st1" d="M32.6,79.8C21.8,79.1,16,73.9,15.5,65.1C15.2,56.8,21,48.9,30,48c11.6-1.2,16.6-7.2,18.3-18.1
	c1.6-10.3,6.6-14.5,15.6-14.6c9.6,0,13.9,3.5,15.8,14.1c1.9,11,7.2,17.4,18.8,18.9c10.1,1.3,14.5,8,13.6,18
	c-0.7,8.1-5.8,13.2-13.9,13.5C88,80.2,82.5,75.8,81.1,65.3c-1.1-7.8-3.5-14.5-11.7-17.1c-10.7-3.4-19.7,3.2-21.7,15.6
	C45.8,74.7,42.5,78.3,32.6,79.8z"/>
<path class="st1" d="M66,81.3c10.8,3.2,14.8,9.3,13.5,19.6c-0.9,6.7-6.4,11.6-13.5,12.1c-9.2,0.6-15.4-3.8-16.9-12
	c-1.7-9.8,2.6-16.9,11.7-19.4C62.2,81.2,63.9,81.3,66,81.3z"/>
</svg>
