<?xml version="1.0" encoding="utf-8"?>
<!-- Generator: Adobe Illustrator 28.1.0, SVG Export Plug-In . SVG Version: 6.00 Build 0)  -->
<svg version="1.1" id="Layer_1" xmlns="http://www.w3.org/2000/svg" xmlns:xlink="http://www.w3.org/1999/xlink" x="0px" y="0px"
	 viewBox="0 0 241 76.2" style="enable-background:new 0 0 241 76.2;" xml:space="preserve">
<style type="text/css">
	.st0{fill:#383838;}
	.st1{fill:#F59E0B;}
</style>
<g>
	<path class="st0" d="M152.4,54.1c-1.5,0.2-2.5-0.4-3.5-1.3c-2.5-2.6-5.2-5.1-8-7.9V54H135V17.2h5.8v23c2.7-2.6,5.3-4.9,7.7-7.2
		c0.8-0.8,1.6-1.1,2.7-1.1c1.7,0.1,3.4,0,5.6,0c-3.9,3.7-7.5,7.1-11.2,10.6c3.9,3.8,7.8,7.5,11.9,11.6
		C155.6,54.1,154.1,54.1,152.4,54.1L152.4,54.1z"/>
	<path class="st0" d="M113.8,53.1c-0.3,0.4-0.6,1-0.9,1c-1.6,0.1-3.2,0-4.9,0V32h5.7v3c1.8-1.9,3.7-3.1,6-3.5
		c5.6-1,10.3,2.5,10.6,8.1c0.2,4.8,0,9.6,0,14.5h-5.8c0-2.8,0-5.4,0-8.1c0-1.6,0.1-3.2,0-4.8c-0.1-3.1-1.6-4.9-4.1-5.2
		c-2.7-0.4-5.5,1.4-6.2,4c-0.2,0.8-0.3,1.7-0.3,2.5C113.8,46,113.8,49.5,113.8,53.1z"/>
	<path class="st0" d="M219.4,23c1.5,0,2.8,0,4.2,0v8.9h5.3v5h-5.2c0,3.5-0.2,6.9,0.1,10.2c0.2,2.6,1.6,3.1,4.4,1.9
		c0.7,1.3,1.4,2.7,2.1,4c-2.6,2.4-8.2,2.4-10.6,0.1c-1.4-1.4-1.8-3.2-1.8-5.1c0-3.6,0-7.3,0-11h-4.1v-5h4.1v-8.9
		C218.4,23,218.8,23,219.4,23L219.4,23z"/>
	<path class="st0" d="M101.4,24.9V54h-5.7V18.7h5.7C101.4,18.7,101.4,24.9,101.4,24.9z"/>
	<path class="st0" d="M184.4,40.9c-0.5-6.3-6-10.4-12.2-9.4c-2.4,0.4-4.4,1.6-6.2,3.5c-0.1-1.2-0.1-2.1-0.2-3h-5.9v33.1h5.8V50.9
		c1,0.9,1.7,1.6,2.4,2.1c4.9,3.5,14,2.1,16.1-6.8C184.3,44.4,184.5,42.6,184.4,40.9L184.4,40.9z M178.2,46c-1.1,2.5-3.4,4.1-6.1,4
		c-2.7-0.2-4.8-1.5-5.7-4c-1-2.7-0.8-5.3,1.2-7.6c0.3-0.4,0.8-0.7,1.2-1.1c0,0,0.1,0,0.1,0c0,0,0,0,0,0c2.9-1.5,5.6-1.3,7.6,0.5
		C178.7,39.7,179.4,43.1,178.2,46L178.2,46z"/>
	<path class="st0" d="M209,36.2c-2.9-4.2-8.2-5.8-14.1-4.1c-5.2,2.1-8,6.7-7.5,12.2c0.5,5.5,4,9.2,9.6,10.2c4.8,0.9,9.8-1,12.2-4.8
		C211.9,45.7,211.8,40.1,209,36.2L209,36.2z M203.8,47.9c-2,2.2-4.5,2.3-7.1,1.3c0,0-0.1,0-0.1-0.1h0c-2.7-1.8-3.9-4.5-3.4-7.4
		c0.6-2.9,2.5-4.8,5.3-5.3c2.6-0.5,5.6,1.2,6.5,3.9C205.9,43,205.8,45.7,203.8,47.9L203.8,47.9z"/>
</g>
<path class="st1" d="M84.8,15.2c1.8-1.5,3.7-3,6-3.5c0.5,2.4,0.2,4.9-0.2,7.3c-0.7,4.1-2.6,8.1-5.7,11c1.1-0.5,2.2-1.2,3.1-1.9
	c-1.4,4.2-3.7,8.4-7.5,10.9c-1.5,1.1-3.4,1.5-5.1,2c-1.8,3-3.5,6-5.5,8.8c-0.4,0.8-1.3,1.1-2.1,1.4c2-4.7,4.6-9.1,7.1-13.4
	c2.6-4.4,5.3-8.8,8-13.1c1.1-2.4,2.5-4.6,3.7-6.9c-1.9,2.2-3.5,4.8-5.1,7.2c-3.1,4.7-5.9,9.6-8.5,14.5c-0.2,0.4-0.5,0.7-0.7,1.1
	c-1-3.6-0.5-7.5,0.8-11c1.6-4,4.4-7.5,7.7-10.3c-0.1,1.4-0.3,2.8,0.2,4.1C81.5,20.3,82.8,17.4,84.8,15.2z"/>
<path class="st1" d="M39.7,38.7c2.9-1.5,6-3.2,9.4-3.1c1.1,0.5,0.3,1.8-0.4,2.3c-4.5,3.8-9.8,6.6-13.8,11c4.7-1.3,9-3.6,13.8-4.7
	c1.4-0.3,3.4-0.6,4.2,0.9c0,0.6,0.1,1.8,0.1,2.4c1.6-1,3.5-1.5,5.2-0.5c-0.6,1.4-1.4,2.8-1.9,4.2c0.1,0.9,0.6,1.4,1.5,1.3
	c3.2-0.1,6.1-2.3,9.3-1.7c-2.1,0.4-4.2,0.5-6.1,1.4c-1.5,0.5-3.7,1.4-5,0.1c-0.5-1.9,0.6-3.5,1.4-5.1c-2.1-0.5-3.9,1-5.8,1.7
	c-0.1-1.2,1.5-3.7-0.5-4.1c-6.4,0.2-11.7,4.8-18.1,5.1c1-2.5,3.2-4.1,5.1-5.7c3.3-2.7,7-4.9,10.2-7.7c-5.1,0.9-9.6,3.8-13.9,6.7
	c-5.2,3.6-10.4,7.3-15.8,10.6c-2.1,1.2-4.3,2.4-6.8,2.3c-1.6,0-3.1-1.7-2.2-3.3c1.9-4,5.4-7,8.6-10c-3.1,3.5-7,6.7-8.5,11.3
	c1.9,2.2,4.8,0.8,6.9-0.3C24.7,49.5,31.7,43.4,39.7,38.7z"/>
</svg>
