<?xml version="1.0" encoding="utf-8"?>
<!-- Generator: Adobe Illustrator 28.1.0, SVG Export Plug-In . SVG Version: 6.00 Build 0)  -->
<svg version="1.1" id="Layer_1" xmlns="http://www.w3.org/2000/svg" xmlns:xlink="http://www.w3.org/1999/xlink" x="0px" y="0px"
	 viewBox="0 0 128 128" style="enable-background:new 0 0 128 128;" xml:space="preserve">
<style type="text/css">
	.st0{fill:#F59E0B;}
	.st1{fill:#FFFFFF;}
</style>
<path class="st0" d="M128,128H0V0h128V128z"/>
<path class="st1" d="M82.9,18.9c4.8-4,9.9-8.2,16.2-9.4c1.5,6.5,0.5,13.2-0.5,19.6C96.7,40.4,91.5,51,83.3,58.8
	c3-1.4,5.8-3.1,8.5-5.1c-3.9,11.3-10,22.6-20.1,29.4c-4.1,3-9.1,4.1-13.9,5.3c-4.8,8-9.6,16.1-14.8,23.9c-1.2,2.1-3.6,2.9-5.7,3.7
	c5.4-12.6,12.4-24.4,19.3-36.3c7-11.9,14.4-23.6,21.7-35.4c3-6.4,6.8-12.4,9.9-18.7c-5.2,6-9.4,12.8-13.8,19.4
	C66,57.6,58.3,70.8,51.2,84.1c-0.6,1-1.3,2-2,2.9c-2.6-9.8-1.4-20.2,2.3-29.6c4.3-10.9,12-20.2,20.7-27.9c-0.3,3.7-0.7,7.5,0.5,11.1
	C74,32.7,77.5,25,82.9,18.9z"/>
</svg>
