<?xml version="1.0" encoding="UTF-8"?>
<svg id="Layer_1" data-name="Layer 1" xmlns="http://www.w3.org/2000/svg" viewBox="0 0 241.04 76.17">
  <defs>
    <style>
      .cls-1 {
        fill: #383838;
      }

      .cls-1, .cls-2 {
        stroke-width: 0px;
      }

      .cls-2 {
        fill: #ed3543;
      }
    </style>
  </defs>
  <path class="cls-1" d="M19.17,47.47c-6.76-.43-10.4-3.67-10.65-9.16-.24-5.21,3.38-10.12,9.05-10.7,7.21-.75,10.41-4.5,11.42-11.34.95-6.43,4.14-9.08,9.72-9.08,5.99,0,8.72,2.16,9.85,8.8,1.17,6.9,4.5,10.86,11.78,11.77,6.29.79,9.08,4.99,8.53,11.21-.45,5.09-3.66,8.23-8.64,8.47-6.47.3-9.88-2.41-10.8-9-.68-4.86-2.19-9.04-7.33-10.67-6.7-2.12-12.29,1.95-13.59,9.74-1.13,6.8-3.12,9.01-9.35,9.97Z"/>
  <path class="cls-2" d="M40.06,48.41c6.77,2.03,9.24,5.79,8.41,12.26-.54,4.19-3.97,7.24-8.49,7.54-5.77.39-9.66-2.38-10.51-7.47-1.03-6.14,1.62-10.6,7.27-12.15.93-.25,1.95-.19,3.32-.19Z"/>
  <g>
    <path class="cls-1" d="M152.35,54.13c-1.53.24-2.51-.37-3.46-1.35-2.53-2.59-5.16-5.09-7.98-7.86v9.1h-5.87V17.22h5.81v22.98c2.74-2.56,5.26-4.86,7.7-7.24.78-.76,1.57-1.11,2.66-1.06,1.68.08,3.37.02,5.55.02-3.9,3.71-7.51,7.14-11.18,10.63,3.91,3.78,7.77,7.53,11.94,11.56-1.91,0-3.46,0-5.16,0Z"/>
    <path class="cls-1" d="M113.83,53.11c-.31.44-.61.96-.93.98-1.58.09-3.17.04-4.86.04v-22.12h5.7v3.02c1.79-1.93,3.67-3.13,6.02-3.55,5.55-.99,10.33,2.51,10.58,8.1.21,4.8.04,9.62.04,14.49h-5.85c0-2.75,0-5.44,0-8.12,0-1.59.05-3.18-.01-4.77-.11-3.06-1.57-4.89-4.07-5.23-2.72-.36-5.47,1.38-6.25,4.03-.24.8-.35,1.66-.35,2.49-.04,3.5-.02,6.99-.02,10.64Z"/>
    <path class="cls-1" d="M219.44,22.96c1.46,0,2.77,0,4.21,0v8.93h5.31v5.03h-5.25c0,3.49-.16,6.87.05,10.22.16,2.62,1.58,3.14,4.38,1.86.69,1.34,1.39,2.68,2.07,4.01-2.59,2.36-8.16,2.38-10.57.07-1.43-1.38-1.82-3.17-1.83-5.07-.02-3.64,0-7.27,0-11.05h-4.09v-4.98h4.07v-8.92c.58-.04,1.04-.06,1.65-.09Z"/>
    <path class="cls-1" d="M101.43,24.87v29.16h-5.69V18.66h5.69v6.21Z"/>
    <path class="cls-1" d="M184.4,40.93c-.52-6.31-5.99-10.44-12.24-9.43-2.43.4-4.38,1.61-6.24,3.49-.06-1.17-.11-2.08-.16-2.95h-5.86v33.13h5.79v-14.29c1,.89,1.66,1.59,2.42,2.14,4.86,3.54,14.04,2.1,16.14-6.77.08-1.86.3-3.61.16-5.33ZM178.18,46c-1.06,2.54-3.4,4.12-6.09,3.95-2.7-.18-4.77-1.48-5.72-4.05-1-2.68-.78-5.3,1.2-7.56.34-.39.78-.71,1.17-1.06.03-.02.06-.03.09-.04,0,0,.01,0,.02-.01,2.88-1.53,5.55-1.33,7.6.5,2.22,1.98,2.94,5.39,1.74,8.28Z"/>
    <path class="cls-1" d="M209.03,36.15c-2.94-4.24-8.19-5.77-14.15-4.06-5.25,2.13-8.01,6.69-7.47,12.24.52,5.45,4.01,9.16,9.61,10.25,4.82.94,9.75-1.01,12.25-4.83,2.63-4.03,2.53-9.62-.23-13.6ZM203.75,47.88c-1.98,2.15-4.5,2.3-7.15,1.33-.03-.02-.05-.04-.08-.06,0,0-.02,0-.02,0-2.73-1.76-3.95-4.48-3.37-7.37.58-2.92,2.46-4.82,5.32-5.35,2.64-.5,5.58,1.15,6.54,3.88.95,2.7.79,5.39-1.23,7.58Z"/>
  </g>
</svg>